<?xml version="1.0" encoding="UTF-8"?>
<svg id="Layer_1" data-name="Layer 1" xmlns="http://www.w3.org/2000/svg" viewBox="0 0 527.64 553.17">
  <defs>
    <style>
      .cls-1 {
        fill: #fff;
        fill-rule: evenodd;
      }

      .cls-2 {
        fill: #2eb454;
        stroke: #231f20;
        stroke-miterlimit: 10;
      }
    </style>
  </defs>
  <polygon class="cls-2" points="478.62 456.58 215.34 552.61 .54 372.62 49.02 96.6 312.29 .57 527.09 180.56 478.62 456.58"/>
  <path class="cls-1" d="m205.62,132.85c-57.1,2.37-140.66,49.62-139.43,147.69,20.34-51.22,92.84-62.93,135.61-21.3,20,19.46,39.56,36.43,68.11,33.89-21.77-11.67-31.88-50.13-50.03-66.93-15.79-14.62-37.15-12.63-46.5-31.4-10.89-21.86-34.7-9.02-39.86,9.13,1.1-32.79,39.05-42.52,57.87-15.72,12.05,2.01,23.09,6.72,33.12,14.13,8.36-24.92-14.59-36.43-30.95-26.95,20.09-21.97,59.23,1.14,43.34,38.02,30.45,32.37,25.74,65.28,73.81,75.05-22.15,48.42-96.78,26.15-131.18,17.7-106.33-26.12-93.17,101.52,33.86,96.76-11.8-10.25-21.03-23.75-27.6-40.57,37.1,38.82,95.72,44.11,170.87,10.53-13.23-8.17-24.23-19-32.58-33.01,40.02,28.02,89.09,27.33,140.42,18.61-34.88-104.03-119.47-172.64-192.77-161.53,18.67-8.5,39.78-11.8,59.92-10.76-60.81-42.8-130.15-52.29-171.09-23.51,11.29-14.19,27.2-24.41,45.07-29.83Zm10.46,106.45c5.27,0,9.54,4.48,9.54,10s-4.27,10.01-9.54,10.01-9.54-4.48-9.54-10.01,4.27-10,9.54-10"/>
</svg>